HIERARCHY
ROOT joint_Root
{
	OFFSET 0.0 0.0 0.0
	CHANNELS 6 Xposition Yposition Zposition Zrotation Xrotation Yrotation 
	JOINT Hips
	{
		OFFSET -17.1583 93.1646 452.98
		CHANNELS 6 Xposition Yposition Zposition Zrotation Xrotation Yrotation 
		JOINT Spine
		{
			OFFSET 15.7357 0.0 0.0
			CHANNELS 6 Xposition Yposition Zposition Zrotation Xrotation Yrotation 
			JOINT Chest
			{
				OFFSET 8.98455 -0.406207 0.0
				CHANNELS 6 Xposition Yposition Zposition Zrotation Xrotation Yrotation 
				JOINT Neck
				{
					OFFSET 16.3773 0.0 0.0
					CHANNELS 6 Xposition Yposition Zposition Zrotation Xrotation Yrotation 
					JOINT Head
					{
						OFFSET 6.45672 0.0 0.0
						CHANNELS 6 Xposition Yposition Zposition Zrotation Xrotation Yrotation 
						End Site
						{
							OFFSET 0.0 0.0 0.0
						}
					}
				}
				JOINT Shoulder_L
				{
					OFFSET 12.9942 -0.242716 4.98039
					CHANNELS 6 Xposition Yposition Zposition Zrotation Xrotation Yrotation 
					JOINT UpperArm_L
					{
						OFFSET 5.34809 0.0 0.0
						CHANNELS 6 Xposition Yposition Zposition Zrotation Xrotation Yrotation 
						JOINT LowerArm_L
						{
							OFFSET 24.3286 1.87007e-05 0.0
							CHANNELS 6 Xposition Yposition Zposition Zrotation Xrotation Yrotation 
							JOINT Hand_L
							{
								OFFSET 22.2916 0.0 0.0
								CHANNELS 6 Xposition Yposition Zposition Zrotation Xrotation Yrotation 
								End Site
								{
									OFFSET 0.0 0.0 0.0
								}
							}
						}
					}
				}
				JOINT Shoulder_R
				{
					OFFSET 12.9945 -0.242716 -4.98039
					CHANNELS 6 Xposition Yposition Zposition Zrotation Xrotation Yrotation 
					JOINT UpperArm_R
					{
						OFFSET -5.34813 0.0 0.0
						CHANNELS 6 Xposition Yposition Zposition Zrotation Xrotation Yrotation 
						JOINT LowerArm_R
						{
							OFFSET -24.3289 0.000322201 0.0
							CHANNELS 6 Xposition Yposition Zposition Zrotation Xrotation Yrotation 
							JOINT Hand_R
							{
								OFFSET -22.2915 -0.000108084 0.0
								CHANNELS 6 Xposition Yposition Zposition Zrotation Xrotation Yrotation 
								End Site
								{
									OFFSET 0.0 0.0 0.0
								}
							}
						}
					}
				}
			}
		}
		JOINT UpperLeg_L
		{
			OFFSET -2.19248 -6.46944 0.0
			CHANNELS 6 Xposition Yposition Zposition Zrotation Xrotation Yrotation 
			JOINT LowerLeg_L
			{
				OFFSET 39.0811 0.0 -1.23785e-05
				CHANNELS 6 Xposition Yposition Zposition Zrotation Xrotation Yrotation 
				JOINT Foot_L
				{
					OFFSET 40.9854 0.0 -1.26872e-05
					CHANNELS 6 Xposition Yposition Zposition Zrotation Xrotation Yrotation 
					JOINT Toes_L
					{
						OFFSET 11.7543 0.0 0.0
						CHANNELS 6 Xposition Yposition Zposition Zrotation Xrotation Yrotation 
						End Site
						{
							OFFSET 0.0 0.0 0.0
						}
					}
				}
			}
		}
		JOINT UpperLeg_R
		{
			OFFSET -2.19251 6.46944 0.0
			CHANNELS 6 Xposition Yposition Zposition Zrotation Xrotation Yrotation 
			JOINT LowerLeg_R
			{
				OFFSET -39.0811 -0.00228153 -0.0401928
				CHANNELS 6 Xposition Yposition Zposition Zrotation Xrotation Yrotation 
				JOINT Foot_R
				{
					OFFSET -40.9854 0.0 0.0
					CHANNELS 6 Xposition Yposition Zposition Zrotation Xrotation Yrotation 
					JOINT Toes_R
					{
						OFFSET -11.7543 0.0 0.0
						CHANNELS 6 Xposition Yposition Zposition Zrotation Xrotation Yrotation 
						End Site
						{
							OFFSET 0.0 0.0 0.0
						}
					}
				}
			}
		}
	}
}
MOTION
Frames:	8
Frame Time:	0.0333333
0.000000 0.000000 0.000000 0.000000 0.000000 -0.000000 -2.790810 91.959300 -0.791571 85.668900 0.917420 7.152180 15.735700 0.000005 -0.000001 85.068500 85.860000 -83.363500 8.984550 -0.406207 -0.000000 0.497840 -0.819652 3.411140 16.377300 -0.000001 -0.000001 11.494200 1.472180 -0.949755 6.456720 -0.000001 -0.000000 -5.048220 0.242941 3.211620 12.994200 -0.242716 4.980390 -93.354800 9.320440 -70.102400 5.348090 -0.000007 -0.000001 -72.684700 16.841600 -1.274600 24.328600 0.000019 0.000005 12.650400 26.974500 -26.327200 22.291600 -0.000001 0.000005 -6.057270 5.023740 6.810670 12.994500 -0.242716 -4.980390 87.394000 6.969510 -69.438900 -5.348130 -0.000001 -0.000004 -68.968500 32.633400 -5.604000 -24.328900 0.000322 -0.000009 1.353580 5.035870 -15.077100 -22.291500 -0.000108 -0.000004 -2.349060 5.294740 0.219201 -2.192480 -6.469440 -0.000000 -175.691000 4.946960 -0.571324 39.081100 -0.000007 -0.000012 0.364494 -0.701896 27.443600 40.985400 -0.000006 -0.000013 0.987355 3.166570 -75.469600 11.754300 -0.000000 0.000003 -0.000320 0.172854 -9.565650 -2.192510 6.469440 -0.000001 -172.509000 9.600610 -173.936000 -39.081100 -0.002282 -0.040193 0.131344 -0.430057 16.577000 -40.985400 0.000008 0.000006 4.734090 2.327160 -71.743300 -11.754300 -0.000006 -0.000006 -0.011183 0.279943 -5.197550
0.000000 0.000000 0.000000 0.000000 0.000000 -0.000000 -2.826510 91.965900 -0.837196 85.652400 0.934849 7.056900 15.735700 0.000005 -0.000001 85.045500 85.865800 -83.313500 8.984550 -0.406207 -0.000000 0.486300 -0.823845 3.464960 16.377300 -0.000001 -0.000001 11.363100 1.459260 -1.038010 6.456720 -0.000001 -0.000000 -5.066390 0.227064 2.930410 12.994200 -0.242716 4.980390 -93.377600 9.379000 -70.092000 5.348090 -0.000007 -0.000001 -72.311900 15.777200 -1.381560 24.328600 0.000019 0.000005 13.924500 27.092800 -28.562800 22.291600 -0.000001 0.000005 -6.495820 5.004310 7.227810 12.994500 -0.242716 -4.980390 87.379500 6.995700 -69.404500 -5.348130 -0.000001 -0.000004 -68.812800 32.705600 -5.664900 -24.328900 0.000322 -0.000009 1.321610 4.857230 -15.252600 -22.291500 -0.000108 -0.000004 -2.301700 5.294000 0.239993 -2.192480 -6.469440 -0.000000 -175.633000 4.954940 -0.706731 39.081100 -0.000007 -0.000012 0.364269 -0.701132 27.454700 40.985400 -0.000006 -0.000013 0.962076 3.204120 -75.496000 11.754300 -0.000000 0.000003 -0.000504 0.175710 -9.449640 -2.192510 6.469440 -0.000001 -172.426000 9.509570 -174.052000 -39.081100 -0.002282 -0.040193 0.131478 -0.431448 16.542800 -40.985400 0.000008 0.000006 4.715230 2.249900 -71.714300 -11.754300 -0.000006 -0.000006 -0.011047 0.278967 -5.237490
0.000000 0.000000 0.000000 0.000000 0.000000 -0.000000 -2.876540 91.959200 -0.873204 85.614300 0.995753 7.023230 15.735700 0.000005 -0.000001 85.097400 85.847500 -83.321100 8.984550 -0.406207 -0.000000 0.523983 -0.821736 3.553810 16.377300 -0.000001 -0.000001 11.249600 1.369380 -1.194010 6.456720 -0.000001 -0.000000 -5.185660 0.123961 2.480490 12.994200 -0.242716 4.980390 -93.428600 9.500050 -70.049300 5.348090 -0.000007 -0.000001 -71.786400 14.583000 -1.292290 24.328600 0.000019 0.000005 15.394100 26.088900 -32.050600 22.291600 -0.000001 0.000005 -6.974740 4.971580 7.918030 12.994500 -0.242716 -4.980390 87.375000 6.984730 -69.342500 -5.348130 -0.000001 -0.000004 -68.676300 32.781300 -5.781540 -24.328900 0.000322 -0.000009 1.337050 4.874130 -15.371500 -22.291500 -0.000108 -0.000004 -2.291140 5.293790 0.245918 -2.192480 -6.469440 -0.000000 -175.560000 4.984350 -0.830480 39.081100 -0.000007 -0.000012 0.365677 -0.701364 27.537500 40.985400 -0.000006 -0.000013 0.929750 3.210110 -75.433000 11.754300 -0.000000 0.000003 -0.000151 0.170127 -9.676400 -2.192510 6.469440 -0.000001 -172.346000 9.603460 -174.106000 -39.081100 -0.002282 -0.040193 0.131737 -0.433245 16.509500 -40.985400 0.000008 0.000006 4.870570 2.224100 -71.683900 -11.754300 -0.000006 -0.000006 -0.011202 0.280075 -5.192150
0.000000 0.000000 0.000000 0.000000 0.000000 -0.000000 -2.928240 91.963800 -0.909213 85.596700 1.066070 6.931770 15.735700 0.000005 -0.000001 85.114500 85.845400 -83.306500 8.984550 -0.406207 -0.000000 0.528672 -0.821559 3.617180 16.377300 -0.000001 -0.000001 11.098200 1.275580 -1.448930 6.456720 -0.000001 -0.000000 -5.360760 -0.022369 1.940220 12.994200 -0.242716 4.980390 -93.435000 9.457770 -69.933300 5.348090 -0.000007 -0.000001 -71.459900 12.552200 -1.093200 24.328600 0.000019 0.000005 17.357400 24.679000 -36.817800 22.291600 -0.000001 0.000005 -7.559270 4.955080 8.261120 12.994500 -0.242716 -4.980390 87.343100 7.058680 -69.312200 -5.348130 -0.000001 -0.000004 -68.527700 32.753600 -5.884830 -24.328900 0.000322 -0.000009 1.323130 4.804090 -15.429900 -22.291500 -0.000108 -0.000004 -2.238610 5.295850 0.188593 -2.192480 -6.469440 -0.000000 -175.495000 5.053780 -0.954376 39.081100 -0.000007 -0.000012 0.365411 -0.700490 27.549700 40.985400 -0.000006 -0.000013 0.899240 3.269310 -75.483800 11.754300 -0.000000 0.000003 -0.000262 0.171923 -9.603450 -2.192510 6.469440 -0.000001 -172.275000 9.589620 -174.233000 -39.081100 -0.002282 -0.040193 0.130824 -0.429997 16.515500 -40.985400 0.000008 0.000006 4.761150 2.201350 -71.683100 -11.754300 -0.000006 -0.000006 -0.011476 0.282025 -5.112300
0.000000 0.000000 0.000000 0.000000 0.000000 -0.000000 -2.970710 91.967900 -0.949717 85.580700 1.067550 6.857660 15.735700 0.000005 -0.000001 85.346400 85.837400 -83.477800 8.984550 -0.406207 -0.000000 0.547451 -0.792861 3.738120 16.377300 -0.000001 -0.000001 10.886400 1.164270 -1.794500 6.456720 -0.000001 -0.000000 -5.570410 -0.162569 0.903539 12.994200 -0.242716 4.980390 -93.490500 9.519470 -69.755400 5.348090 -0.000007 -0.000001 -71.068800 10.395700 -0.495033 24.328600 0.000019 0.000005 20.746000 23.077100 -44.019400 22.291600 -0.000001 0.000005 -8.193510 4.906330 9.251340 12.994500 -0.242716 -4.980390 87.327000 7.081350 -69.258100 -5.348130 -0.000001 -0.000004 -68.372600 32.734000 -6.048800 -24.328900 0.000322 -0.000009 1.296960 4.697040 -15.467100 -22.291500 -0.000108 -0.000004 -2.243160 5.296150 0.180137 -2.192480 -6.469440 -0.000000 -175.438000 5.062200 -1.072850 39.081100 -0.000007 -0.000012 0.364163 -0.697673 27.563900 40.985400 -0.000006 -0.000013 0.856448 3.253790 -75.457200 11.754300 -0.000000 0.000003 -0.000193 0.170807 -9.648780 -2.192510 6.469440 -0.000001 -172.217000 9.563060 -174.341000 -39.081100 -0.002282 -0.040193 0.129857 -0.426822 16.512400 -40.985400 0.000008 0.000006 4.736210 2.210350 -71.649600 -11.754300 -0.000006 -0.000006 -0.011448 0.281823 -5.120570
0.000000 0.000000 0.000000 0.000000 0.000000 -0.000000 -3.017050 91.981900 -1.014380 85.579200 1.044030 6.673570 15.735700 0.000005 -0.000001 86.150800 85.860400 -84.216100 8.984550 -0.406207 -0.000000 0.508987 -0.678077 3.869690 16.377300 -0.000001 -0.000001 10.606900 0.946863 -2.334020 6.456720 -0.000001 -0.000000 -6.014550 -0.420545 -0.623020 12.994200 -0.242716 4.980390 -93.494900 9.475200 -69.645500 5.348090 -0.000007 -0.000001 -70.829500 8.024470 0.220277 24.328600 0.000019 0.000005 24.391500 20.421800 -52.421200 22.291600 -0.000001 0.000005 -7.943740 4.900750 9.362640 12.994500 -0.242716 -4.980390 87.270100 7.194270 -69.155900 -5.348130 -0.000001 -0.000004 -68.156300 32.751300 -6.092110 -24.328900 0.000322 -0.000009 1.263760 4.515030 -15.667200 -22.291500 -0.000108 -0.000004 -2.169470 5.295250 0.205202 -2.192480 -6.469440 -0.000000 -175.372000 4.982920 -1.296040 39.081100 -0.000007 -0.000012 0.363462 -0.697001 27.541300 40.985400 -0.000006 -0.000013 0.835656 3.327350 -75.460300 11.754300 -0.000000 0.000003 -0.000360 0.173485 -9.540020 -2.192510 6.469440 -0.000001 -172.119000 9.433050 -174.532000 -39.081100 -0.002282 -0.040193 0.128057 -0.423221 16.421200 -40.985400 0.000008 0.000006 4.745590 2.081700 -71.546900 -11.754300 -0.000006 -0.000006 -0.011414 0.281584 -5.130340
0.000000 0.000000 0.000000 0.000000 0.000000 -0.000000 -3.058740 91.999800 -1.055730 85.603900 1.061610 6.506080 15.735700 0.000005 -0.000001 86.788600 85.889500 -84.774800 8.984550 -0.406207 -0.000000 0.455599 -0.588802 4.027040 16.377300 -0.000001 -0.000001 10.273500 0.712621 -3.146110 6.456720 -0.000001 -0.000000 -6.446330 -0.668804 -2.665570 12.994200 -0.242716 4.980390 -93.464600 9.334110 -69.530500 5.348090 -0.000007 -0.000001 -70.798200 5.438150 0.861242 24.328600 0.000019 0.000005 26.764600 16.176000 -61.086200 22.291600 -0.000001 0.000005 -6.835080 4.876290 9.847090 12.994500 -0.242716 -4.980390 87.205800 7.339770 -69.090900 -5.348130 -0.000001 -0.000004 -67.920500 32.741100 -6.089900 -24.328900 0.000322 -0.000009 1.241920 4.385480 -15.841200 -22.291500 -0.000108 -0.000004 -2.224990 5.294240 0.233269 -2.192480 -6.469440 -0.000000 -175.316000 4.903530 -1.461340 39.081100 -0.000007 -0.000012 0.351919 -0.677627 27.445400 40.985400 -0.000006 -0.000013 0.819392 3.435680 -75.354200 11.754300 -0.000000 0.000003 -0.000114 0.169521 -9.701030 -2.192510 6.469440 -0.000001 -172.120000 9.516610 -174.706000 -39.081100 -0.002282 -0.040193 0.124315 -0.412161 16.359400 -40.985400 0.000008 0.000006 4.688440 2.195690 -71.473800 -11.754300 -0.000006 -0.000006 -0.011237 0.280326 -5.181860
0.000000 0.000000 0.000000 0.000000 0.000000 -0.000000 -3.106210 92.018100 -1.092760 85.614400 1.015880 6.321630 15.735700 0.000005 -0.000001 87.422700 85.940400 -85.324100 8.984550 -0.406207 -0.000000 0.357684 -0.500594 4.195750 16.377300 -0.000001 -0.000001 10.002300 0.553886 -4.194790 6.456720 -0.000001 -0.000000 -6.937510 -0.835588 -4.908630 12.994200 -0.242716 4.980390 -93.418100 9.131040 -69.375200 5.348090 -0.000007 -0.000001 -70.862400 2.946540 1.232200 24.328600 0.000019 0.000005 28.401800 11.319700 -70.049200 22.291600 -0.000001 0.000005 -4.954310 4.845270 10.452000 12.994500 -0.242716 -4.980390 87.148900 7.482140 -69.070700 -5.348130 -0.000001 -0.000004 -67.721700 32.886900 -6.079870 -24.328900 0.000322 -0.000009 1.208710 4.250010 -15.904900 -22.291500 -0.000108 -0.000004 -2.216750 5.294890 0.215155 -2.192480 -6.469440 -0.000000 -175.265000 4.778020 -1.614790 39.081100 -0.000007 -0.000012 0.354952 -0.685875 27.363100 40.985400 -0.000006 -0.000013 0.801151 3.509100 -75.393500 11.754300 -0.000000 0.000003 -0.000364 0.173546 -9.537530 -2.192510 6.469440 -0.000001 -172.042000 9.343520 -174.874000 -39.081100 -0.002282 -0.040193 0.121686 -0.405867 16.257800 -40.985400 0.000008 0.000006 4.625460 2.069720 -71.392700 -11.754300 -0.000006 -0.000006 -0.011258 0.280480 -5.175560
